<?xml version="1.0" encoding="UTF-8"?>
<svg id="Layer_1" data-name="Layer 1" xmlns="http://www.w3.org/2000/svg" viewBox="0 0 703.44 745.31">
  <defs>
    <style>
      .cls-1 {
        fill: none;
        stroke: #ffffcb;
        stroke-miterlimit: 10;
        stroke-width: 3px;
      }

      .cls-2 {
        fill: #ffffcb;
        stroke-width: 0px;
      }
    </style>
  </defs>
  <path class="cls-2" d="M672.34,495.32c-69.29,82.85-176.96,140.02-286.65,114.77-98.02-22.57-180.32-100.53-207.5-197.42-.03-.09-34.01-121.08,72.28-139.69,4.84-.85,5.34-7.6.71-9.27-3.92-1.4-7.76-2.89-11.49-4.36-15.61-6.12-30.68-13.62-45.29-21.86-20.79-11.72-35.84-25.58-61.36-18.51-20.58,5.7-38.47,22.33-47.63,41.37-29.51,61.39,11.38,108.33,14.14,168.8,1.4,30.49-3.29,61.25-12.74,90.23-.03.09-.05.18-.09.25-16.59,42.11-15.87,93.48,10.15,131.67,22.11,32.47,58.99,52.19,93.92,66.48,43.33,17.74,90.78,27.51,140.51,27.51,160.79,0,297.72-102.25,349.27-245.27,1.82-5.05-4.78-8.84-8.23-4.72ZM153.96,266.19c-6.69,0-12.12-5.43-12.12-12.12s5.43-12.12,12.12-12.12,12.12,5.43,12.12,12.12-5.42,12.12-12.12,12.12Z"/>
  <circle class="cls-2" cx="86.35" cy="114.43" r="18.72"/>
  <circle class="cls-2" cx="47.36" cy="157.82" r="18.72"/>
  <circle class="cls-2" cx="18.72" cy="201.87" r="18.72"/>
  <path class="cls-2" d="M580.84,92.31c-19.44-17.18-40.62-32.38-63.15-45.24C456.26,12.03,387.55-2.35,317.18.31c-37.35,1.41-96.74,6.33-103.46,53.5-4.69,32.98,22,65.34,55.8,64.21,30.44-1,45.7-28.7,71.26-40.37,15.64-7.15,32.59-11.21,49.65-13.02,62.38-6.56,125.55,15.1,180.93,41.77,8.95,4.31,16.91-7.5,9.47-14.09ZM261.68,83.12c-14.46,3.08-28.67-6.17-31.74-20.62-3.08-14.47,6.17-28.67,20.62-31.75,14.47-3.06,28.67,6.17,31.75,20.64,3.06,14.46-6.17,28.67-20.64,31.74Z"/>
  <path class="cls-2" d="M673.36,220c-12.08-15.92-25.77-30.62-40.84-43.74-41.08-35.78-90.79-57.06-144.35-65.72-28.43-4.59-74.04-9.88-86.25,24.73-8.54,24.2,6.71,52.68,32.42,56.95,23.14,3.85,38.86-14.75,59.94-19.68,12.91-3.03,26.31-3.53,39.48-2.3,48.1,4.5,92.54,30.44,130.31,58.97,6.12,4.62,13.91-3.1,9.29-9.21ZM438.83,162.63c-10.67,2.26-21.16-4.55-23.42-15.22-2.26-10.67,4.55-21.14,15.22-23.41,10.67-2.26,21.16,4.55,23.42,15.22,2.26,10.67-4.55,21.14-15.22,23.41Z"/>
  <path class="cls-2" d="M702.88,328.48c-6.68-13.67-14.74-26.65-24.07-38.66-25.42-32.75-59.41-55.96-98.13-70.29-20.56-7.62-53.83-18.26-68.05,5.79-9.93,16.81-2.72,40.33,15.84,47.3,16.71,6.28,31.19-5.3,47.65-5.9,10.07-.36,20.17,1.23,29.82,4.08,35.26,10.43,64.63,36.34,88.65,63.19,3.89,4.35,10.86-.27,8.29-5.51ZM538.1,251.08c-7.69,1.63-15.24-3.28-16.87-10.97-1.63-7.68,3.28-15.23,10.96-16.86,7.69-1.63,15.24,3.28,16.87,10.96,1.63,7.68-3.28,15.23-10.96,16.87Z"/>
  <path class="cls-1" d="M18.72,201.87s55.7,33.24,78.13,66.89"/>
  <path class="cls-1" d="M47.36,157.82s45.58,42.39,62.49,84.14"/>
  <path class="cls-1" d="M86.35,114.43s36.07,51.87,40.11,116.19"/>
</svg>