<?xml version="1.0" encoding="UTF-8"?>
<svg id="Layer_1" data-name="Layer 1" xmlns="http://www.w3.org/2000/svg" viewBox="0 0 229.67 243.34">
  <defs>
    <style>
      .cls-1 {
        fill: #f95335;
        stroke-width: 0px;
      }
    </style>
  </defs>
  <path class="cls-1" d="M219.51,161.72c-22.62,27.05-57.78,45.72-93.59,37.47-32-7.37-58.87-32.82-67.75-64.45,0-.03-11.1-39.53,23.6-45.61,1.58-.28,1.74-2.48.23-3.03-1.28-.46-2.53-.94-3.75-1.42-5.1-2-10.02-4.45-14.79-7.14-6.79-3.83-11.7-8.35-20.03-6.04-6.72,1.86-12.56,7.29-15.55,13.51-9.63,20.04,3.72,35.37,4.62,55.11.46,9.95-1.08,20-4.16,29.46,0,.03-.02.06-.03.08-5.42,13.75-5.18,30.52,3.31,42.99,7.22,10.6,19.26,17.04,30.66,21.71,14.15,5.79,29.64,8.98,45.87,8.98,52.5,0,97.2-33.38,114.03-80.08.59-1.65-1.56-2.89-2.69-1.54ZM50.27,86.91c-2.18,0-3.96-1.77-3.96-3.96s1.77-3.96,3.96-3.96,3.96,1.77,3.96,3.96-1.77,3.96-3.96,3.96Z"/>
  <circle class="cls-1" cx="28.19" cy="37.36" r="6.11"/>
  <circle class="cls-1" cx="15.46" cy="51.53" r="6.11"/>
  <circle class="cls-1" cx="6.11" cy="65.91" r="6.11"/>
  <path class="cls-1" d="M189.64,30.14c-6.35-5.61-13.26-10.57-20.62-14.77C148.96,3.93,126.53-.77,103.56.1c-12.2.46-31.59,2.07-33.78,17.47-1.53,10.77,7.18,21.33,18.22,20.96,9.94-.33,14.92-9.37,23.27-13.18,5.11-2.33,10.64-3.66,16.21-4.25,20.37-2.14,40.99,4.93,59.07,13.64,2.92,1.41,5.52-2.45,3.09-4.6ZM85.44,27.14c-4.72,1-9.36-2.01-10.36-6.73-1-4.72,2.01-9.36,6.73-10.37,4.72-1,9.36,2.01,10.37,6.74,1,4.72-2.01,9.36-6.74,10.36Z"/>
  <path class="cls-1" d="M219.85,71.83c-3.94-5.2-8.41-10-13.33-14.28-13.41-11.68-29.64-18.63-47.13-21.46-9.28-1.5-24.17-3.23-28.16,8.07-2.79,7.9,2.19,17.2,10.59,18.59,7.56,1.26,12.69-4.82,19.57-6.43,4.21-.99,8.59-1.15,12.89-.75,15.7,1.47,30.21,9.94,42.55,19.25,2,1.51,4.54-1.01,3.03-3.01ZM143.27,53.1c-3.48.74-6.91-1.49-7.65-4.97-.74-3.48,1.49-6.9,4.97-7.64,3.48-.74,6.91,1.49,7.65,4.97.74,3.48-1.49,6.9-4.97,7.64Z"/>
  <path class="cls-1" d="M229.48,107.25c-2.18-4.46-4.81-8.7-7.86-12.62-8.3-10.69-19.4-18.27-32.04-22.95-6.71-2.49-17.58-5.96-22.22,1.89-3.24,5.49-.89,13.17,5.17,15.44,5.45,2.05,10.18-1.73,15.56-1.93,3.29-.12,6.58.4,9.73,1.33,11.51,3.4,21.1,11.86,28.94,20.63,1.27,1.42,3.55-.09,2.71-1.8ZM175.69,81.97c-2.51.53-4.98-1.07-5.51-3.58-.53-2.51,1.07-4.97,3.58-5.5,2.51-.53,4.98,1.07,5.51,3.58.53,2.51-1.07,4.97-3.58,5.51Z"/>
  <path class="cls-1" d="M6.11,65.91s18.19,10.85,25.51,21.84"/>
  <path class="cls-1" d="M15.46,51.53s14.88,13.84,20.4,27.47"/>
  <path class="cls-1" d="M28.19,37.36s11.78,16.94,13.1,37.93"/>
</svg>