<?xml version="1.0" encoding="UTF-8"?>
<svg id="Layer_1" data-name="Layer 1" xmlns="http://www.w3.org/2000/svg" viewBox="0 0 870.82 195.56">
  <defs>
    <style>
      .cls-1 {
        fill: #50a3a4;
      }

      .cls-1, .cls-2, .cls-3 {
        isolation: isolate;
        opacity: .8;
        stroke-width: 0px;
      }

      .cls-2 {
        fill: #fcaf38;
      }

      .cls-3 {
        fill: #f95335;
      }
    </style>
  </defs>
  <path class="cls-3" d="M47.54,6.02c56.9,11.15,113.12,45.09,114.31,93.09.06,2.4-.02,4.8-.23,7.21-3.28,37.12-38.22,74.47-86.99,85.84-26.65,6.21-52.19,3.43-74.63-4.48V6.02s47.54,0,47.54,0Z"/>
  <path class="cls-2" d="M0,.05h705.19c-1.65,1.55-3.39,3.11-5.22,4.65-31.42,26.52-88.63,51.09-149.27,63.06-10.53,2.08-21.16,3.78-31.78,5.04-20.74,2.47-41.44,3.28-61.2,2-.91-.06-1.82-.13-2.71-.19-3.27-.25-6.44-.54-9.52-.88-22.62-2.5-40.26-7.36-57.99-11.55h-.01c-18.09-4.27-36.27-7.83-59.94-7.41-6.07.1-12.5.47-19.39,1.15-18.24,1.81-33.12,5.19-46.17,9.56h-.01c-36.96,12.35-59.26,32.57-101.62,47.31-2.52.88-5.11,1.73-7.78,2.57-22.81,7.13-48.35,11.72-74.92,13.87-4.59.38-9.22.68-13.86.91h-.01C42.7,131.2,21.17,130.77,0,128.93V.02s0,.03,0,.03Z"/>
  <path class="cls-1" d="M501.96,22.74c.01-7.28,2.12-14.95,5.84-22.74h277.23c-6.4,10.19-14.03,20.52-23.12,30.24-.98,1.06-1.98,2.09-2.99,3.13-3.2,3.26-6.57,6.45-10.12,9.53-.32.28-.64.56-.97.84-3.71,3.16-7.6,6.21-11.69,9.11-9.07,6.42-19.12,12.11-30.24,16.75-19.39,8.06-38.25,11.32-55.12,12.14-9.27.45-17.94.17-25.78-.46h0c-10.37-.82-19.29-2.24-26.2-3.34-12.85-2.04-30.99-4.93-48.09-10.21-6.54-2.02-12.93-4.39-18.81-7.19-6.02-2.88-11.52-6.21-16.12-10.09-5.87-4.96-10.26-10.82-12.38-17.79-.97-3.19-1.44-6.5-1.43-9.9v-.02Z"/>
  <g id="Layer_7" data-name="Layer 7">
    <path class="cls-2" d="M699.66.02h113.02c31.74,10.38,57.26,24.64,58.12,32.59.13,1.18-.1,4.03-9.66,7.31-25.5,8.74-67.42,3.29-102.22-6.54-29.88-8.42-54.5-20.07-58.95-28.71-.24-.45-.42-.9-.54-1.34-.33-1.19-.22-2.29.23-3.31Z"/>
  </g>
  <path class="cls-3" d="M390.21,52.44c-29.97,12.76-56.18,6.32-60.13,14.15-3.93,7.79,17.61,22.86,41.05,23.14,14.91.18,18.8-5.78,43.63-12.23,35.77-9.3,50.99-2.99,59.21-10.65,14.14-13.18-12.5-49-35.49-47.85-16.57.82-17.01,20.14-48.26,33.44h0Z"/>
</svg>