<?xml version="1.0" encoding="UTF-8"?>
<svg xmlns="http://www.w3.org/2000/svg" viewBox="0 0 1366 320.02">
  <defs>
    <style>
      .cls-1 {
        fill: #50a3a4;
      }

      .cls-1, .cls-2, .cls-3 {
        opacity: .8;
        stroke-width: 0px;
      }

      .cls-2 {
        fill: #fcaf38;
      }

      .cls-3 {
        fill: #f95335;
      }
    </style>
  </defs>
  <g id="Layer_2" data-name="Layer 2">
    <path class="cls-3" d="M227.5,132.52c-.44,1.46-1.03,2.84-1.74,4.16-10.82,20.1-51.21,24.73-78.26,27.84-53.06,6.09-114.73,13.18-147-29-.17-.22-.34-.45-.5-.67V19.05c.16-.18.33-.36.5-.53,38.32-39.33,116.52-6.27,145,10,21.48,12.27,35.36,26.81,44,36,19.42,20.64,44.35,47.15,38,68Z"/>
  </g>
  <g id="Layer_7" data-name="Layer 7">
    <path class="cls-1" d="M1366,70.24v249.78h-673.63c.43-.26.85-.53,1.28-.79.27-.16.53-.33.8-.49,38.15-23.44,80.7-44.18,116.22-58.42h.01c6.17-2.48,12.13-4.76,17.82-6.82,63.5-23.01,122.79-29.83,130.66-30.69,8.55-.93,16.49-1.6,23.9-2.04,28.99-1.74,49.99-.11,68.31,1.75,31.48,3.2,55.06,7.08,97.7-4.26,32.54-8.65,94-24.99,141.67-77.62,4.6-5.08,8.56-9.93,12.3-14.64,6.03-7.56,11.52-14.76,18.32-22,6.06-6.47,13.16-12.96,22.61-19.77,6.05-4.37,13.65-9.28,22.03-13.99Z"/>
  </g>
  <g id="Layer_4" data-name="Layer 4">
    <path class="cls-2" d="M695.12,320.02H207.93c-3.06-22.12-14.33-38.36-9.43-62.5,8.18-40.32,53.99-65.97,90-80.45,17.42-7,32.54-11.39,40-13.55,91.35-26.49,174.28-.56,219.99,20.03.32.14.63.28.94.43,19.06,8.64,31.47,16.26,35.07,18.54,10.74,6.78,31.8,20.4,54.61,42.6.23.23.47.45.7.69,18.36,17.95,37.78,41.46,53.84,71.42.27.5.54,1,.8,1.51.22.42.45.85.67,1.28Z"/>
  </g>
  <g id="Layer_3" data-name="Layer 3">
    <path class="cls-1" d="M399.6,320.02H0V121.25c33.47-16,115.62-41.88,225.76,15.43,15.7,8.17,31.97,18.02,48.74,29.84,4.83,3.4,9.51,6.95,14,10.55,28.96,23.2,50,48.45,50,48.45,15.26,19.14,20.66,31.08,25.17,41.89,4.51,10.81,8.13,20.49,19.83,35.11,4.97,6.21,10.38,12.04,16.1,17.5Z"/>
  </g>
  <g id="Layer_5" data-name="Layer 5">
    <path class="cls-3" d="M644.63,235.28c-8.72,22.9-31.34,51.46-61.3,52.04-49.25.95-82.11-74.41-69.4-90.74,6.7-8.61,24.65,1.01,33.78-10,11.47-13.83-9.71-37.63-.4-50.45,10.95-15.06,61.04-10.81,86.74,19.92,27.44,32.8,11.4,77.04,10.57,79.23Z"/>
  </g>
  <g id="Layer_6" data-name="Layer 6">
    <path class="cls-2" d="M860.13,213.94c33.88-23.57,59.44-41.36,85.83-32.15,23.09,8.06,43.84,35.75,37.62,58.48-5.25,19.19-28.29,29.61-44.67,32.47-36.83,6.41-63.83-21.29-74.49-10.89-9.22,9.01,8.1,32.59-.39,40.15-9.9,8.81-50.67-7.87-54.26-31.27-3.01-19.64,21.31-36.56,50.37-56.78Z"/>
  </g>
  <g id="Layer_8" data-name="Layer 8">
    <path class="cls-3" d="M1366,104.34v215.68h-380.82c9.12-23.73,22.54-44.73,26.32-50.5,11.91-18.18,25.43-33.67,39.87-47,43.99-40.63,96.52-61.2,138.13-77,32.51-12.34,60.89-23.11,86.2-30.82,16.41-4.99,31.54-8.7,45.66-10.7,16.03-2.27,30.77-2.36,44.64.34Z"/>
  </g>
  <g id="Layer_9" data-name="Layer 9">
    <path class="cls-2" d="M1366,62.25v156.51c-16.13,1.26-35.22-5.79-44.45-18.2-15.69-21.08,5.11-46.86-12.13-69.05-1.56-2-3.65-3.79-6.38-5.51-5.84-3.67-14.61-6.99-27.34-11.3-3.67-1.24-7.67-2.57-12.02-4.01-48.62-16.06-62.77-14.72-66.3-24.44-5.51-15.21,20.07-43.58,48.92-55.07,38.18-15.21,83.97-1.61,112.57,24.05,2.49,2.24,4.87,4.58,7.13,7.02Z"/>
  </g>
</svg>